<svg width="190" height="190" viewBox="0 0 190 190" fill="none" xmlns="http://www.w3.org/2000/svg">
<path d="M95 190C147.467 190 190 147.467 190 95C190 42.5329 147.467 0 95 0C42.5329 0 0 42.5329 0 95C0 147.467 42.5329 190 95 190Z" fill="#EAECF0"/>
<path d="M152 190H38V67.1334C43.3732 67.1273 48.5246 64.9902 52.324 61.1908C56.1235 57.3913 58.2606 52.2399 58.2667 46.8667H131.733C131.728 49.5285 132.25 52.1649 133.27 54.6235C134.29 57.0821 135.787 59.314 137.675 61.1901C139.551 63.0789 141.783 64.5767 144.242 65.5969C146.701 66.617 149.338 67.1393 152 67.1334V190Z" fill="white"/>
<path d="M94.9996 129.2C111.789 129.2 125.4 115.589 125.4 98.8C125.4 82.0106 111.789 68.4 94.9996 68.4C78.2102 68.4 64.5996 82.0106 64.5996 98.8C64.5996 115.589 78.2102 129.2 94.9996 129.2Z" fill="#98A2B3"/>
<path d="M105.748 113.131L95 102.383L84.252 113.131L80.6693 109.548L91.4173 98.8002L80.6693 88.0521L84.252 84.4695L95 95.2175L105.748 84.4695L109.331 88.0521L98.5827 98.8002L109.331 109.548L105.748 113.131Z" fill="white"/>
<path d="M111.466 136.8H78.5324C76.4337 136.8 74.7324 138.501 74.7324 140.6C74.7324 142.699 76.4337 144.4 78.5324 144.4H111.466C113.564 144.4 115.266 142.699 115.266 140.6C115.266 138.501 113.564 136.8 111.466 136.8Z" fill="#EAECF0"/>
<path d="M122.867 152H67.134C65.0353 152 63.334 153.701 63.334 155.8C63.334 157.899 65.0353 159.6 67.134 159.6H122.867C124.966 159.6 126.667 157.899 126.667 155.8C126.667 153.701 124.966 152 122.867 152Z" fill="#EAECF0"/>
</svg>
