<svg width="248" height="175" viewBox="0 0 248 175" fill="none" xmlns="http://www.w3.org/2000/svg">
<path d="M200 0H50C43.0965 0 37.5 5.59646 37.5 12.5V162.5C37.5 169.404 43.0965 175 50 175H200C206.904 175 212.5 169.404 212.5 162.5V12.5C212.5 5.59646 206.904 0 200 0Z" fill="#EAECF0"/>
<g filter="url(#filter0_d_48_6263)">
<path d="M64.9981 67.5002H233.749C235.406 67.5002 236.996 68.1587 238.168 69.3308C239.34 70.5029 239.999 72.0927 239.999 73.7503V105C239.999 106.658 239.34 108.248 238.168 109.42C236.996 110.592 235.406 111.25 233.749 111.25H64.9981C63.3405 111.25 61.7507 110.592 60.5786 109.42C59.4065 108.248 58.748 106.658 58.748 105V73.7503C58.748 72.0927 59.4065 70.5029 60.5786 69.3308C61.7507 68.1587 63.3405 67.5002 64.9981 67.5002V67.5002Z" fill="white"/>
</g>
<path d="M157.498 77.5005H124.998C122.927 77.5005 121.248 79.1794 121.248 81.2505C121.248 83.3216 122.927 85.0005 124.998 85.0005H157.498C159.569 85.0005 161.248 83.3216 161.248 81.2505C161.248 79.1794 159.569 77.5005 157.498 77.5005Z" fill="#D0D5DD"/>
<path d="M179.998 93.751H124.998C122.927 93.751 121.248 95.4299 121.248 97.501C121.248 99.5721 122.927 101.251 124.998 101.251H179.998C182.069 101.251 183.748 99.5721 183.748 97.501C183.748 95.4299 182.069 93.751 179.998 93.751Z" fill="#EAECF0"/>
<path d="M96.8731 101.251C103.431 101.251 108.748 95.9339 108.748 89.3755C108.748 82.8171 103.431 77.5005 96.8731 77.5005C90.3147 77.5005 84.998 82.8171 84.998 89.3755C84.998 95.9339 90.3147 101.251 96.8731 101.251Z" fill="#98A2B3"/>
<path d="M92.2374 90.7507H91.4221L93.2541 85.6598H94.1415L95.9735 90.7507H95.1582L93.7189 86.5845H93.6792L92.2374 90.7507ZM92.3741 88.7571H95.019V89.4034H92.3741V88.7571ZM96.7087 90.7507V85.6598H98.5731C98.9343 85.6598 99.2335 85.7195 99.4704 85.8388C99.7074 85.9565 99.8847 86.1164 100.002 86.3186C100.12 86.5191 100.179 86.7453 100.179 86.9972C100.179 87.2093 100.14 87.3883 100.062 87.5341C99.9842 87.6783 99.8798 87.7943 99.7488 87.8821C99.6196 87.9683 99.4771 88.0313 99.3213 88.071V88.1208C99.4903 88.129 99.6552 88.1837 99.816 88.2848C99.9784 88.3843 100.113 88.5259 100.219 88.7099C100.325 88.8938 100.378 89.1176 100.378 89.3811C100.378 89.6412 100.316 89.8749 100.194 90.0821C100.073 90.2875 99.8856 90.4508 99.632 90.5718C99.3785 90.6911 99.0545 90.7507 98.6601 90.7507H96.7087ZM97.4768 90.092H98.5855C98.9534 90.092 99.2169 90.0207 99.376 89.8782C99.5351 89.7357 99.6146 89.5576 99.6146 89.3438C99.6146 89.183 99.574 89.0355 99.4928 88.9013C99.4116 88.7671 99.2956 88.6602 99.1448 88.5806C98.9956 88.5011 98.8183 88.4613 98.6128 88.4613H97.4768V90.092ZM97.4768 87.8622H98.5059C98.6783 87.8622 98.8332 87.8291 98.9708 87.7628C99.11 87.6965 99.2202 87.6037 99.3014 87.4844C99.3843 87.3634 99.4257 87.2209 99.4257 87.0568C99.4257 86.8464 99.3519 86.6699 99.2045 86.5274C99.057 86.3848 98.8308 86.3136 98.5258 86.3136H97.4768V87.8622Z" fill="white"/>
<g filter="url(#filter1_d_48_6263)">
<path d="M11.25 121.25H180C181.658 121.25 183.248 121.909 184.42 123.081C185.592 124.253 186.25 125.843 186.25 127.5V158.75C186.25 160.408 185.592 161.998 184.42 163.17C183.248 164.342 181.658 165 180 165H11.25C9.59241 165 8.00269 164.342 6.83059 163.17C5.65848 161.998 5 160.408 5 158.75V127.5C5 125.843 5.65848 124.253 6.83059 123.081C8.00269 121.909 9.59241 121.25 11.25 121.25V121.25Z" fill="white"/>
</g>
<path d="M103.75 131.251H71.25C69.1789 131.251 67.5 132.93 67.5 135.001C67.5 137.072 69.1789 138.751 71.25 138.751H103.75C105.821 138.751 107.5 137.072 107.5 135.001C107.5 132.93 105.821 131.251 103.75 131.251Z" fill="#D0D5DD"/>
<path d="M126.25 147.501H71.25C69.1789 147.501 67.5 149.18 67.5 151.251C67.5 153.323 69.1789 155.001 71.25 155.001H126.25C128.321 155.001 130 153.323 130 151.251C130 149.18 128.321 147.501 126.25 147.501Z" fill="#EAECF0"/>
<path d="M26.875 155.002C33.4334 155.002 38.7501 149.685 38.7501 143.127C38.7501 136.568 33.4334 131.252 26.875 131.252C20.3166 131.252 15 136.568 15 143.127C15 149.685 20.3166 155.002 26.875 155.002Z" fill="#98A2B3"/>
<path d="M24.5859 140.748C24.5594 140.513 24.45 140.33 24.2578 140.201C24.0656 140.07 23.8236 140.005 23.532 140.005C23.3232 140.005 23.1425 140.038 22.9901 140.104C22.8376 140.169 22.7191 140.258 22.6346 140.373C22.5517 140.485 22.5103 140.614 22.5103 140.758C22.5103 140.879 22.5385 140.983 22.5948 141.071C22.6528 141.159 22.7282 141.233 22.821 141.292C22.9155 141.35 23.0166 141.399 23.1243 141.439C23.232 141.477 23.3356 141.509 23.435 141.533L23.9322 141.663C24.0946 141.702 24.2611 141.756 24.4318 141.824C24.6025 141.892 24.7608 141.982 24.9066 142.093C25.0524 142.204 25.1701 142.341 25.2596 142.505C25.3507 142.669 25.3963 142.866 25.3963 143.095C25.3963 143.383 25.3217 143.639 25.1726 143.863C25.0251 144.086 24.8105 144.263 24.5288 144.392C24.2487 144.521 23.9098 144.586 23.5121 144.586C23.1309 144.586 22.8011 144.525 22.5227 144.405C22.2443 144.284 22.0264 144.112 21.869 143.89C21.7115 143.666 21.6245 143.401 21.608 143.095H22.3786C22.3935 143.278 22.4531 143.432 22.5575 143.554C22.6636 143.675 22.7987 143.766 22.9627 143.825C23.1284 143.883 23.3099 143.912 23.5071 143.912C23.7242 143.912 23.9173 143.878 24.0863 143.81C24.257 143.741 24.3912 143.645 24.489 143.522C24.5868 143.398 24.6357 143.253 24.6357 143.087C24.6357 142.936 24.5926 142.813 24.5064 142.717C24.4219 142.621 24.3067 142.541 24.1609 142.478C24.0167 142.415 23.8535 142.36 23.6712 142.311L23.0696 142.147C22.6619 142.036 22.3388 141.873 22.1001 141.658C21.8632 141.442 21.7447 141.157 21.7447 140.803C21.7447 140.509 21.8242 140.253 21.9833 140.034C22.1424 139.816 22.3578 139.646 22.6296 139.525C22.9014 139.402 23.208 139.341 23.5494 139.341C23.8941 139.341 24.1982 139.401 24.4616 139.522C24.7268 139.643 24.9356 139.81 25.0881 140.022C25.2405 140.233 25.3201 140.474 25.3267 140.748H24.5859ZM29.0908 140.748C29.0643 140.513 28.9549 140.33 28.7627 140.201C28.5705 140.07 28.3285 140.005 28.0368 140.005C27.828 140.005 27.6474 140.038 27.4949 140.104C27.3425 140.169 27.224 140.258 27.1395 140.373C27.0566 140.485 27.0152 140.614 27.0152 140.758C27.0152 140.879 27.0434 140.983 27.0997 141.071C27.1577 141.159 27.2331 141.233 27.3259 141.292C27.4204 141.35 27.5215 141.399 27.6292 141.439C27.7369 141.477 27.8405 141.509 27.9399 141.533L28.4371 141.663C28.5995 141.702 28.766 141.756 28.9367 141.824C29.1074 141.892 29.2657 141.982 29.4115 142.093C29.5573 142.204 29.675 142.341 29.7645 142.505C29.8556 142.669 29.9012 142.866 29.9012 143.095C29.9012 143.383 29.8266 143.639 29.6775 143.863C29.53 144.086 29.3154 144.263 29.0336 144.392C28.7536 144.521 28.4147 144.586 28.017 144.586C27.6358 144.586 27.306 144.525 27.0276 144.405C26.7492 144.284 26.5313 144.112 26.3738 143.89C26.2164 143.666 26.1294 143.401 26.1128 143.095H26.8834C26.8983 143.278 26.958 143.432 27.0624 143.554C27.1685 143.675 27.3035 143.766 27.4676 143.825C27.6333 143.883 27.8148 143.912 28.012 143.912C28.2291 143.912 28.4221 143.878 28.5912 143.81C28.7619 143.741 28.8961 143.645 28.9939 143.522C29.0916 143.398 29.1405 143.253 29.1405 143.087C29.1405 142.936 29.0974 142.813 29.0113 142.717C28.9268 142.621 28.8116 142.541 28.6657 142.478C28.5216 142.415 28.3583 142.36 28.176 142.311L27.5745 142.147C27.1668 142.036 26.8437 141.873 26.605 141.658C26.368 141.442 26.2496 141.157 26.2496 140.803C26.2496 140.509 26.3291 140.253 26.4882 140.034C26.6473 139.816 26.8627 139.646 27.1345 139.525C27.4063 139.402 27.7129 139.341 28.0542 139.341C28.3989 139.341 28.703 139.401 28.9665 139.522C29.2317 139.643 29.4405 139.81 29.593 140.022C29.7454 140.233 29.825 140.474 29.8316 140.748H29.0908Z" fill="white"/>
<g filter="url(#filter2_d_48_6263)">
<path d="M180 13.7501H11.25C7.79823 13.7501 5 16.5483 5 20.0001V51.2502C5 54.702 7.79823 57.5002 11.25 57.5002H180C183.452 57.5002 186.25 54.702 186.25 51.2502V20.0001C186.25 16.5483 183.452 13.7501 180 13.7501Z" fill="white"/>
</g>
<path d="M101.25 23.7505H68.75C66.6789 23.7505 65 25.4294 65 27.5005C65 29.5716 66.6789 31.2505 68.75 31.2505H101.25C103.321 31.2505 105 29.5716 105 27.5005C105 25.4294 103.321 23.7505 101.25 23.7505Z" fill="#D0D5DD"/>
<path d="M123.75 40.0009H68.75C66.6789 40.0009 65 41.6798 65 43.7509C65 45.8219 66.6789 47.5009 68.75 47.5009H123.75C125.821 47.5009 127.5 45.8219 127.5 43.7509C127.5 41.6798 125.821 40.0009 123.75 40.0009Z" fill="#EAECF0"/>
<path d="M43.125 47.5008C49.6834 47.5008 55.0001 42.1842 55.0001 35.6258C55.0001 29.0674 49.6834 23.7507 43.125 23.7507C36.5666 23.7507 31.25 29.0674 31.25 35.6258C31.25 42.1842 36.5666 47.5008 43.125 47.5008Z" fill="#98A2B3"/>
<path d="M38.588 38.001H37.7727L39.6047 32.9101H40.4921L42.3241 38.001H41.5088L40.0695 33.8348H40.0298L38.588 38.001ZM38.7247 36.0074H41.3696V36.6537H38.7247V36.0074ZM43.4894 38.001H42.674L44.5061 32.9101H45.3935L47.2255 38.001H46.4102L44.9709 33.8348H44.9311L43.4894 38.001ZM43.6261 36.0074H46.271V36.6537H43.6261V36.0074Z" fill="white"/>
<defs>
<filter id="filter0_d_48_6263" x="56.748" y="65.5002" width="191.25" height="53.75" filterUnits="userSpaceOnUse" color-interpolation-filters="sRGB">
<feFlood flood-opacity="0" result="BackgroundImageFix"/>
<feColorMatrix in="SourceAlpha" type="matrix" values="0 0 0 0 0 0 0 0 0 0 0 0 0 0 0 0 0 0 127 0" result="hardAlpha"/>
<feOffset dx="3" dy="3"/>
<feGaussianBlur stdDeviation="2.5"/>
<feColorMatrix type="matrix" values="0 0 0 0 0.230539 0 0 0 0 0.370572 0 0 0 0 0.482993 0 0 0 0.1 0"/>
<feBlend mode="normal" in2="BackgroundImageFix" result="effect1_dropShadow_48_6263"/>
<feBlend mode="normal" in="SourceGraphic" in2="effect1_dropShadow_48_6263" result="shape"/>
</filter>
<filter id="filter1_d_48_6263" x="0" y="119.25" width="191.25" height="53.75" filterUnits="userSpaceOnUse" color-interpolation-filters="sRGB">
<feFlood flood-opacity="0" result="BackgroundImageFix"/>
<feColorMatrix in="SourceAlpha" type="matrix" values="0 0 0 0 0 0 0 0 0 0 0 0 0 0 0 0 0 0 127 0" result="hardAlpha"/>
<feOffset dy="3"/>
<feGaussianBlur stdDeviation="2.5"/>
<feColorMatrix type="matrix" values="0 0 0 0 0.230539 0 0 0 0 0.370572 0 0 0 0 0.482993 0 0 0 0.1 0"/>
<feBlend mode="normal" in2="BackgroundImageFix" result="effect1_dropShadow_48_6263"/>
<feBlend mode="normal" in="SourceGraphic" in2="effect1_dropShadow_48_6263" result="shape"/>
</filter>
<filter id="filter2_d_48_6263" x="0" y="11.7501" width="191.25" height="53.7501" filterUnits="userSpaceOnUse" color-interpolation-filters="sRGB">
<feFlood flood-opacity="0" result="BackgroundImageFix"/>
<feColorMatrix in="SourceAlpha" type="matrix" values="0 0 0 0 0 0 0 0 0 0 0 0 0 0 0 0 0 0 127 0" result="hardAlpha"/>
<feOffset dy="3"/>
<feGaussianBlur stdDeviation="2.5"/>
<feColorMatrix type="matrix" values="0 0 0 0 0.230539 0 0 0 0 0.370572 0 0 0 0 0.482993 0 0 0 0.1 0"/>
<feBlend mode="normal" in2="BackgroundImageFix" result="effect1_dropShadow_48_6263"/>
<feBlend mode="normal" in="SourceGraphic" in2="effect1_dropShadow_48_6263" result="shape"/>
</filter>
</defs>
</svg>
