<svg xmlns="http://www.w3.org/2000/svg" data-name="Layer 1" width="827.46722" height="485.14881" viewBox="0 0 827.46722 485.14881" xmlns:xlink="http://www.w3.org/1999/xlink"><path d="M851.811,658.89426v-72.34S880.00269,637.84023,851.811,658.89426Z" transform="translate(-186.26639 -207.4256)" fill="#f1f1f1"/><path d="M853.55249,658.88153l-53.28962-48.92125S857.10807,623.87582,853.55249,658.88153Z" transform="translate(-186.26639 -207.4256)" fill="#f1f1f1"/><path id="bd6ed7a0-4f55-4d16-8470-689021da7a06-226" data-name="Path 438" d="M230.96123,609.50924a24.21461,24.21461,0,0,0,23.38269-4.11876c8.18977-6.87442,10.758-18.196,12.84671-28.68192l6.17973-31.01657-12.9377,8.90837c-9.30465,6.40641-18.81827,13.01866-25.26012,22.29785s-9.25222,21.94708-4.07792,31.988" transform="translate(-186.26639 -207.4256)" fill="#e6e6e6"/><path id="baf5ae41-137e-4be8-91e2-4250e376e90d-227" data-name="Path 439" d="M232.959,649.21981c-1.62839-11.86369-3.30382-23.88079-2.15885-35.87168,1.01467-10.64932,4.26374-21.0488,10.87832-29.57938a49.20586,49.20586,0,0,1,12.62465-11.44038c1.26216-.79648,2.4241,1.20354,1.16733,1.997A46.7794,46.7794,0,0,0,236.966,596.65094c-4.02858,10.24607-4.67546,21.41583-3.98154,32.3003.41944,6.58218,1.31074,13.12121,2.20588,19.65251a1.19817,1.19817,0,0,1-.808,1.42251,1.16349,1.16349,0,0,1-1.42253-.808Z" transform="translate(-186.26639 -207.4256)" fill="#f2f2f2"/><path id="f85335d1-6f5c-42b1-a998-da22cf645fb6-228" data-name="Path 442" d="M244.68,630.18336a17.82515,17.82515,0,0,0,15.53142,8.01861c7.8644-.37318,14.41806-5.85972,20.31713-11.07027l17.452-15.4088-11.54988-.5528c-8.30619-.39784-16.82672-.771-24.73813,1.79338s-15.20758,8.72638-16.654,16.9154" transform="translate(-186.26639 -207.4256)" fill="#e6e6e6"/><path id="a8d439ae-3464-4578-ba51-6c0ded705d6f-229" data-name="Path 443" d="M228.356,656.03949c7.83972-13.87142,16.93235-29.28794,33.1808-34.21551a37.02589,37.02589,0,0,1,13.95545-1.44105c1.4819.128,1.1118,2.41174-.367,2.28454a34.39826,34.39826,0,0,0-22.27165,5.89215c-6.27994,4.27453-11.16975,10.21755-15.30781,16.51907-2.5351,3.8605-4.80576,7.88444-7.07642,11.903C229.74379,658.2662,227.622,657.33866,228.356,656.03949Z" transform="translate(-186.26639 -207.4256)" fill="#f2f2f2"/><path d="M678.43874,372.1937H998.69083V210.06751H678.43874Z" transform="translate(-186.26639 -207.4256)" fill="#fff"/><path d="M1001.33266,374.83556H675.79687v-167.41h325.53579ZM681.08047,369.552H996.04905V212.7092H681.08047Z" transform="translate(-186.26639 -207.4256)" fill="#e5e5e5"/><rect x="530.61314" y="59.51276" width="246.39769" height="8.17123" fill="#6c63ff"/><rect x="530.61314" y="79.32899" width="246.39769" height="8.17123" fill="#6c63ff"/><rect x="731.21961" y="108.58825" width="45.79122" height="7.09119" fill="#6c63ff"/><path d="M482.38641,525.391h.00018a45.82532,45.82532,0,0,1,45.8253,45.82531v87.18H349.38124v-.00013A133.00517,133.00517,0,0,1,482.38639,525.391Z" transform="translate(-186.26639 -207.4256)" fill="#e4e4e4"/><rect y="448.99137" width="827.46722" height="2.25775" fill="#cacaca"/><polygon points="204.322 459.424 190.252 463.494 167.856 411.162 188.622 405.154 204.322 459.424" fill="#9e616a"/><path d="M398.12238,679.44981,352.75513,692.5744l-.166-.57381a18.38326,18.38326,0,0,1,12.549-22.76684l.00112-.00033,27.7088-8.016Z" transform="translate(-186.26639 -207.4256)" fill="#2f2e41"/><polygon points="314.484 460.825 328.693 464.378 349.159 411.261 328.188 406.018 314.484 460.825" fill="#9e616a"/><path d="M498.2858,662.70511l27.98349,6.997.00113.00029a18.38327,18.38327,0,0,1,13.37343,22.29254l-.14493.5795-45.817-11.4562Z" transform="translate(-186.26639 -207.4256)" fill="#2f2e41"/><path d="M424.23635,477.196l-14.51548,15.48318s-76.44816,33.86944-76.44816,51.288,18.38625,92.899,26.12784,98.70521c4.663,3.51646,2.55514,7.30369,4.86854,12.66627l27.0655-9.76318s-1.93539-5.80622,0-8.7093,0-4.83851,0-4.83851-2.90308.96771-1.93539-1.93538.96768-3.87079,0-4.8385-3.8708-9.677-3.8708-9.677.96769-34.83713-12.58008-47.41724c0,0,62.90037-18.38625,70.642-30.96635s9.677-58.06191,9.677-58.06191Z" transform="translate(-186.26639 -207.4256)" fill="#2f2e41"/><path d="M465.84736,470.4221l14.51548,25.16016s76.44818,33.86944,76.44818,51.288-18.38623,92.899-26.12787,98.70521c-4.663,3.51646-3.32655,8.80537-5.64,14.168l-26.29407-11.26486s1.93538-5.80622,0-8.70931,0-4.8385,0-4.8385,2.90309.96771,1.93538-1.93538-.96771-3.8708,0-4.83851,3.8708-9.677,3.8708-9.677-.96772-34.83713,12.5801-47.41723c0,0-68.7066-24.19247-76.44819-36.77253-9.91467-16.11132-2.66543-82.27134-4.83851-59.99731Z" transform="translate(-186.26639 -207.4256)" fill="#2f2e41"/><circle cx="284.41946" cy="122.68022" r="25.16016" fill="#9e616a"/><path d="M488.10443,367.846s.23234.4485-43.95131-3.021c0,0-24.75528,9.795-23.78757,16.56883s-1.93538,99.67293-1.93538,99.67293,40.64335,11.61239,52.25574,0S488.10443,367.846,488.10443,367.846Z" transform="translate(-186.26639 -207.4256)" fill="#6c63ff"/><path d="M479.52723,366.82626l11.74605.73413s34.57137,12.86574,33.60366,22.54273-19.354,55.1588-19.354,55.1588-9.677,34.83715-7.74159,44.51412,4.8385,12.58008,2.90308,15.48317,0,8.70928,0,10.64468-11.61234,9.677-11.61234,9.677-18.38623-16.45087-25.16016-19.354-11.61239-25.16016-6.77389-44.51412,19.354-81.28667,19.354-81.28667A17.63968,17.63968,0,0,1,479.52723,366.82626Z" transform="translate(-186.26639 -207.4256)" fill="#3f3d56"/><path d="M448.805,364.07555a32.36284,32.36284,0,0,0-14.79376.54833c-5.02761,1.37116-28.16123,9.99609-28.16123,13.86689s9.677,52.25572,9.677,52.25572l1.93538,28.06324-17.41857,12.58006s3.8708,12.58008-.96768,17.41856-10.64468,17.41857-4.83849,19.354S435.84874,496.55,436.8164,482.03447s-2.90308-25.16016,3.8708-35.80484,7.74159-52.25571,7.74159-52.25571Z" transform="translate(-186.26639 -207.4256)" fill="#3f3d56"/><path d="M494.18393,308.39784a29.05849,29.05849,0,0,0-16.52958-12.6365l-5.05372,4.043,1.96482-4.71569a26.75132,26.75132,0,0,0-4.995-.28868l-4.54708,5.8463,1.882-5.64605a28.78069,28.78069,0,0,0-19.85431,11.80993c-5.78735,8.34484-6.76389,19.94976-1.07184,28.35983,1.56257-4.80186,3.459-9.30763,5.02159-14.10954a14.21258,14.21258,0,0,0,3.70227.018l1.9011-4.43579.531,4.24818c5.89229-.51341,14.632-1.64041,20.2181-2.67307l-.54316-3.25893,3.24981,2.70819c1.71147-.394,2.72757-.75127,2.6436-1.02434,4.15452,6.69757,9.23867,10.97543,13.39305,17.67294C497.67364,324.8685,499.49,317.01577,494.18393,308.39784Z" transform="translate(-186.26639 -207.4256)" fill="#2f2e41"/><ellipse cx="307.64422" cy="123.64792" rx="2.03216" ry="3.38694" fill="#a0616a"/><path d="M483.52285,503.66726H439.79239a4.15,4.15,0,0,1-4.15-4.15v0l-1.92708-57.21986a4.15,4.15,0,0,1,4.15-4.15h47.58463a4.15,4.15,0,0,1,4.15,4.15v0l-1.92709,57.21986a4.15,4.15,0,0,1-4.15,4.15Z" transform="translate(-186.26639 -207.4256)" fill="#e4e4e4"/><circle cx="275.39121" cy="248.06529" r="3.85411" fill="#6c63ff"/><path d="M468.03734,480.33778a10.44855,10.44855,0,0,1,15.99747-.87781l22.357-8.382,8.40738,12.344-31.73869,11.39355a10.50513,10.50513,0,0,1-15.02317-14.47771Z" transform="translate(-186.26639 -207.4256)" fill="#9e616a"/><path d="M454.64891,477.81191a10.44849,10.44849,0,0,0-15.55883-3.82262L418.67,461.61539l-10.54617,10.57523L437.20637,489.26a10.50513,10.50513,0,0,0,17.44254-11.448Z" transform="translate(-186.26639 -207.4256)" fill="#9e616a"/><path d="M509.39379,384.29692s14.51548-2.90308,18.38623,9.677,23.22474,59.02959,17.41857,65.80348-27.09558,25.16016-33.86947,29.031-9.677,3.8708-9.677,3.8708l-8.70926,3.8708-2.90308-22.25707,9.93224-5.88352L515.2,455.9066l-8.70931-26.12785Z" transform="translate(-186.26639 -207.4256)" fill="#3f3d56"/><path d="M414.55933,377.523S400.04385,374.62,396.17308,387.2s-23.22476,59.0296-17.41859,65.80348,27.09556,25.16016,33.86942,29.031,9.677,3.8708,9.677,3.8708l8.70931,3.87079,2.90308-22.25707-9.93224-5.88351-15.22792-12.50276,14.03165-34.3533Z" transform="translate(-186.26639 -207.4256)" fill="#3f3d56"/></svg>