<svg xmlns="http://www.w3.org/2000/svg" fill="none" viewBox="0 0 250 250">
  
  
<g transform="matrix(17.857142857142858,0,0,17.857142857142858,0,0)"><path fill="#ffffff" stroke="#4147D5" stroke-linejoin="round" stroke-width="1.5" d="M1.285 11.726c.36-1.433.465-2.994.465-3.476h10.5c.595.892.858 2.76.954 4.002.042.55-.402.998-.954.998h-2v-2c-1.198 2-3 2-3 2H2.368c-.743 0-1.264-.803-1.083-1.524z"></path><path fill="#D7E0FF" stroke="#4147D5" stroke-linecap="round" stroke-linejoin="round" stroke-width="1.5" d="M5.63 5.5c-.21-.932-.38-1.943-.38-2.75 0-1.6 1.333-2 2-2s2 .4 2 2c0 .807-.17 1.818-.38 2.75h2.38c1.6 0 2 1.333 2 2a1 1 0 01-1 1h-10a1 1 0 01-1-1c0-.667.4-2 2-2h2.38z"></path></g></svg>